# xmcd
#
# Track frame offsets: 
#        150
#        19250
#        35900
#        53702
#        68132
#        84265
#        99360
#        120940
#        137580
#        154297
#        175617
#        190245
#
# Disc length: 2760 seconds
#
# Revision: 1
# Processed by: cddbd v1.5.2PL0 Copyright (c) Steve Scherf et al.
# Submitted via: ExactAudioCopy v0.99pb5
#
DISCID=940ac60c
DTITLE=Eli Young Band - Jet Black and Jealous
DYEAR=2008
DGENRE=Country
TTITLE0=When It Rains
TTITLE1=Always the Love Songs
TTITLE2=Radio Waves
TTITLE3=Enough Is Enough
TTITLE4=Famous
TTITLE5=Throw and Go
TTITLE6=Guinevere
TTITLE7=Get in the Car and Drive
TTITLE8=Jet Black and Jealous
TTITLE9=Mystery in the Making
TTITLE10=How Should I Know
TTITLE11=Home
EXTD=
EXTT0=
EXTT1=
EXTT2=
EXTT3=
EXTT4=
EXTT5=
EXTT6=
EXTT7=
EXTT8=
EXTT9=
EXTT10=
EXTT11=
PLAYORDER=
